<svg version="1.1" viewBox="0.0 0.0 960.0 720.0" fill="none" stroke="none" stroke-linecap="square" stroke-miterlimit="10" xmlns:xlink="http://www.w3.org/1999/xlink" xmlns="http://www.w3.org/2000/svg"><clipPath id="p.0"><path d="m0 0l960.0 0l0 720.0l-960.0 0l0 -720.0z" clip-rule="nonzero"/></clipPath><g clip-path="url(#p.0)"><path fill="#000000" fill-opacity="0.0" d="m0 0l960.0 0l0 720.0l-960.0 0z" fill-rule="evenodd"/><path fill="#000000" fill-opacity="0.0" d="m442.85245 102.1706l438.1417 0l0 215.49606l-438.1417 0z" fill-rule="evenodd"/><path fill="#b7b7b7" d="m472.80557 292.40353q3.203125 0 6.03125 -1.71875q2.828125 -1.734375 3.5625 -5.21875q0.75 -3.5 -1.515625 -5.34375q-2.265625 -1.859375 -6.875 -3.234375q-4.59375 -1.375 -6.59375 -2.390625q-1.984375 -1.03125 -3.609375 -2.703125q-3.265625 -3.328125 -1.78125 -10.296875q1.21875 -5.7031097 6.140625 -9.79686q4.9375 -4.09375 11.984375 -4.09375q3.390625 0 6.859375 1.0q3.46875 0.984375 4.359375 0.984375q0.90625 0 1.875 -1.28125l0.703125 0l-2.28125 12.92186l-1.03125 0q-1.90625 -5.5624847 -4.546875 -8.92186q-2.640625 -3.359375 -6.578125 -3.359375q-3.921875 0 -6.5 1.828125q-2.5625 1.8125 -3.21875 4.859375q-0.640625 3.0312347 1.609375 4.6718597q2.25 1.625 5.796875 2.65625q3.5625 1.015625 4.671875 1.40625q1.109375 0.375 2.71875 1.046875q1.625 0.671875 2.578125 1.421875q0.953125 0.734375 1.96875 1.859375q1.015625 1.109375 1.4375 2.453125q1.078125 3.078125 0.171875 7.296875q-1.46875 6.90625 -6.6875 11.109375q-5.203125 4.1875 -12.25 4.1875q-3.640625 0 -8.140625 -0.953125q-4.5 -0.96875 -5.015625 -0.96875q-0.90625 0 -2.140625 1.921875l-0.890625 0l2.609375 -15.234375l1.09375 0q1.625 5.5625 5.125 9.734375q3.5 4.15625 8.359375 4.15625zm23.243683 -8.453125l4.28125 -20.15625l-3.53125 0l0.234375 -1.15625l3.53125 0l1.765625 -8.249985l12.53125 -2.9375l-2.390625 11.187485l8.3125 0l-0.234375 1.15625l-8.3125 0l-4.59375 21.5625q-0.640625 3.015625 -0.34375 4.421875q0.3125 1.40625 2.234375 1.40625q1.921875 0 3.765625 -1.921875q1.859375 -1.921875 3.015625 -5.25l1.0625 0.140625q-1.453125 4.40625 -4.3125 7.0q-2.859375 2.59375 -8.171875 2.59375q-5.3125 0 -7.671875 -2.109375q-2.359375 -2.109375 -1.171875 -7.6875zm36.747192 9.796875q-8.25 0 -11.484375 -4.25q-3.21875 -4.265625 -1.609375 -11.84375q1.625 -7.59375 7.109375 -11.625q5.5 -4.03125 12.671875 -4.03125q14.53125 0 10.859375 14.59375l-18.046875 0l-0.53125 2.5q-1.34375 6.265625 -0.421875 9.46875q0.921875 3.203125 4.890625 3.203125q7.421875 0 11.40625 -7.9375l1.125 0.1875q-2.203125 4.609375 -5.921875 7.171875q-3.703125 2.5625 -10.046875 2.5625zm-0.171875 -18.4375l6.59375 0l0.671875 -3.125q1.09375 -5.1875 0.890625 -7.078125q-0.203125 -1.890625 -2.03125 -1.890625q-1.8125 0 -3.109375 2.015625q-1.296875 2.015625 -2.34375 6.953125l-0.671875 3.125zm35.0708 2.75l1.859375 0l1.046875 -4.921875q1.28125 -6.078125 1.046875 -8.15625q-0.21875 -2.078125 -2.140625 -2.078125q-1.15625 0 -2.21875 0.609375q-1.0625 0.609375 -1.28125 1.671875q-0.21875 1.046875 -0.0625 2.125l1.59375 0q0.234375 1.34375 -0.171875 3.234375q-0.40625 1.890625 -2.296875 3.265625q-1.890625 1.375 -4.3125 1.375q-5.515625 0 -4.390625 -5.3125q1.671875 -7.875 15.046875 -7.875q7.625 0 9.984375 2.59375q2.375 2.59375 0.90625 9.5l-2.765625 13.0q-0.703125 3.328125 1.140625 3.328125q2.1875 0 3.953125 -6.59375l0.953125 0.0625q-1.453125 5.640625 -3.765625 7.75q-2.296875 2.109375 -6.53125 2.109375q-7.671875 0 -7.8125 -4.734375q-1.34375 2.4375 -3.265625 3.59375q-1.90625 1.140625 -5.109375 1.140625q-9.46875 0 -7.8125 -7.75q0.953125 -4.53125 4.9375 -6.234375q3.984375 -1.703125 11.46875 -1.703125zm-4.234375 7.875q-0.71875 3.328125 -0.578125 4.296875q0.15625 0.953125 1.140625 0.953125q1.0 0 2.21875 -1.625q1.21875 -1.640625 1.828125 -4.515625l1.265625 -5.953125l-0.453125 0q-3.96875 0 -5.21875 5.828125l-0.203125 1.015625zm30.760986 -40.82811l15.671875 0l-9.953125 46.843735l3.578125 0l-0.25 1.15625l-19.0 0l0.25 -1.15625l3.515625 0l9.703125 -45.687485l-3.765625 0l0.25 -1.15625zm15.427063 38.843735l4.28125 -20.15625l-3.53125 0l0.234375 -1.15625l3.53125 0l1.765625 -8.249985l12.53125 -2.9375l-2.390625 11.187485l8.3125 0l-0.234375 1.15625l-8.3125 0l-4.59375 21.5625q-0.640625 3.015625 -0.34375 4.421875q0.3125 1.40625 2.234375 1.40625q1.921875 0 3.765625 -1.921875q1.859375 -1.921875 3.015625 -5.25l1.0625 0.140625q-1.453125 4.40625 -4.3125 7.0q-2.859375 2.59375 -8.171875 2.59375q-5.3125 0 -7.671875 -2.109375q-2.359375 -2.109375 -1.171875 -7.6875zm30.262817 -38.843735l15.421875 0l-4.984375 23.42186q1.65625 -2.9375 4.140625 -4.734375q2.5 -1.796875 6.78125 -1.796875q9.921875 0 7.65625 10.6875l-4.09375 19.265625l3.59375 0l-0.25 1.15625l-18.125 0l0.25 -1.15625l2.625 0l4.421875 -20.796875q0.8125 -3.84375 0.53125 -4.953125q-0.265625 -1.125 -1.609375 -1.125q-2.046875 0 -4.1875 2.6875q-2.140625 2.6875 -2.953125 6.53125l-3.75 17.65625l2.75 0l-0.25 1.15625l-18.171875 0l0.25 -1.15625l3.515625 0l9.703125 -45.687485l-3.515625 0l0.25 -1.15625zm31.927063 18.687485l0.234375 -1.15625l18.5625 0l-0.234375 1.15625l-3.453125 0l2.46875 21.25l11.9375 -21.25l-4.296875 0l0.234375 -1.15625l9.03125 0l-0.234375 1.15625l-3.203125 0l-19.3125 34.5q-3.375 6.015625 -6.515625 8.40625q-3.140625 2.40625 -6.921875 2.40625q-3.765625 0 -5.578125 -1.734375q-1.8125 -1.71875 -1.234375 -4.40625q0.5625 -2.6875 2.265625 -4.09375q1.71875 -1.40625 4.03125 -1.40625q5.3125 0 4.375 4.40625q-0.203125 0.96875 -0.890625 2.3125l-2.234375 0q-0.828125 1.46875 -0.65625 2.421875q0.1875 0.96875 1.53125 0.96875q2.625 0 5.21875 -2.59375q2.609375 -2.59375 5.59375 -7.90625l2.25 -3.96875l-5.625 0l-4.71875 -29.3125l-2.625 0z" fill-rule="nonzero"/><path fill="#000000" fill-opacity="0.0" d="m195.48863 102.1706l438.14172 0l0 215.49606l-438.14172 0z" fill-rule="evenodd"/><path fill="#ffffff" d="m233.87926 278.22665l5.765625 -19.96875l-4.171875 -13.249985l-3.953125 0l0 -1.3125l21.5 0l0 1.3125l-4.09375 0l10.32814 32.79686l8.328125 -32.79686l-7.0 0l0 -1.3125l13.859375 0l0 1.3125l-4.578125 0l-12.75 47.906235l-6.1718903 0l-10.265625 -31.328125l-9.015625 31.328125l-6.03125 0l-17.46875 -47.906235l-3.25 0l0 -1.3125l22.53125 0l0 1.3125l-4.859375 0l11.296875 33.218735zm54.352585 14.6875q-8.9375 0 -13.40625 -4.609375q-4.46875 -4.609375 -4.46875 -12.8125q0 -8.21875 5.015625 -12.578125q5.03125 -4.375 12.796875 -4.375q15.734375 0 15.109375 15.796875l-19.546875 0l0 2.703125q0 6.796875 1.734375 10.265625q1.734375 3.46875 6.03125 3.46875q8.046875 0 10.53125 -8.59375l1.25 0.203125q-1.3125 4.984375 -4.75 7.765625q-3.421875 2.765625 -10.296875 2.765625zm-4.4375 -19.953125l7.140625 0l0 -3.40625q0 -5.609375 -0.65625 -7.65625q-0.65625 -2.046875 -2.640625 -2.046875q-1.96875 0 -2.90625 2.1875q-0.9375 2.171875 -0.9375 7.515625l0 3.40625zm38.617035 2.96875l2.015625 0l0 -5.328125q0 -6.59375 -0.734375 -8.84375q-0.71875 -2.25 -2.796875 -2.25q-1.25 0 -2.265625 0.65625q-1.0 0.65625 -1.0 1.796875q0 1.140625 0.421875 2.328125l1.734375 0q0.546875 1.453125 0.546875 3.5q0 2.046875 -1.734375 3.546875q-1.734375 1.484375 -4.359375 1.484375q-5.96875 0 -5.96875 -5.765625q0 -8.515625 14.484375 -8.515625q8.25 0 11.40625 2.8125q3.15625 2.796875 3.15625 10.28125l0 14.078125q0 3.609375 2.015625 3.609375q2.359375 0 2.765625 -7.140625l1.046875 0.0625q-0.28125 6.109375 -2.296875 8.390625q-2.0 2.28125 -6.578125 2.28125q-8.3125 0 -9.5625 -5.125q-0.90625 2.640625 -2.71875 3.890625q-1.796875 1.234375 -5.265625 1.234375q-10.25 0 -10.25 -8.390625q0 -4.921875 3.90625 -6.75q3.921875 -1.84375 12.03125 -1.84375zm-2.765625 8.53125q0 3.609375 0.375 4.65625q0.390625 1.03125 1.453125 1.03125q1.078125 0 2.015625 -1.765625q0.9375 -1.765625 0.9375 -4.890625l0 -6.453125l-0.484375 0q-4.296875 0 -4.296875 6.3125l0 1.109375zm23.920502 -44.23436l16.984375 0l0 50.749985l3.875 0l0 1.25l-20.59375 0l0 -1.25l3.8125 0l0 -49.499985l-4.078125 0l0 -1.25zm25.642029 42.093735l0 -21.84375l-3.8125 0l0 -1.25l3.8125 0l0 -8.937485l12.90625 -3.1875l0 12.124985l9.0 0l0 1.25l-9.0 0l0 23.359375q0 3.265625 0.65625 4.796875q0.65625 1.515625 2.734375 1.515625q2.078125 0 3.640625 -2.078125q1.5625 -2.078125 2.046875 -5.6875l1.171875 0.140625q-0.546875 4.78125 -3.046875 7.59375q-2.5 2.796875 -8.25 2.796875q-5.75 0 -8.8125 -2.28125q-3.046875 -2.28125 -3.046875 -8.3125zm23.846527 -42.093735l16.71875 0l0 25.374985q1.109375 -3.1875 3.390625 -5.125q2.296875 -1.9375 6.9375 -1.9375q10.75 0 10.75 11.578125l0 20.859375l3.875 0l0 1.25l-19.625 0l0 -1.25l2.84375 0l0 -22.53125q0 -4.15625 -0.5625 -5.359375q-0.546875 -1.21875 -2.0 -1.21875q-2.21875 0 -3.921875 2.90625q-1.6875 2.90625 -1.6875 7.078125l0 19.125l2.96875 0l0 1.25l-19.6875 0l0 -1.25l3.8125 0l0 -49.499985l-3.8125 0l0 -1.25zm38.89566 20.249985l0 -1.25l20.109406 0l0 1.25l-3.7500305 0l7.5625305 23.015625l8.046875 -23.015625l-4.65625 0l0 -1.25l9.78125 0l0 1.25l-3.46875 0l-12.96875 37.359375q-2.2812805 6.515625 -5.1250305 9.109375q-2.84375 2.609375 -6.9375 2.609375q-4.078125 0 -6.4375 -1.875q-2.359375 -1.859375 -2.359375 -4.78125q0 -2.90625 1.515625 -4.4375q1.53125 -1.515625 4.03125 -1.515625q5.75 0 5.75 4.78125q0 1.03125 -0.421875 2.5l-2.421875 0q-0.546875 1.59375 -0.140625 2.625q0.421875 1.046875 1.875 1.046875q2.84375 0 5.0625 -2.8125q2.21875 -2.8125 4.234375 -8.5625l1.5156555 -4.296875l-6.0937805 0l-11.859375 -31.75l-2.84375 0z" fill-rule="nonzero"/></g></svg>